<svg id="Layer_1" data-name="Layer 1" xmlns="http://www.w3.org/2000/svg" viewBox="0 0 305.33 301.33"><defs><style>.cls-1{fill:#007bbf;}.cls-2{fill:#fff;}.cls-3{fill:#2d3e50;}</style></defs><title>pic</title><path class="cls-1" d="M253,134.06A63.21,63.21,0,0,1,189.54,71c0-34.65,28.59-63.79,63.33-63.41,36.2.4,63.17,27.63,63.56,63.56C316.82,106.08,288.18,134,253,134.06Zm8.37-77.57c1.26.37,1.85.36,2.15.65,3.32,3.27,6.59,6.59,9.88,9.89,7.29,7.29,7.2,7.21,14.48-.29,2.32-2.39,2.09-4-.12-6.21Q271.79,44.66,256,28.62c-2-2-3.67-2.45-5.86-.24q-16,16.14-32.16,32.13c-1.93,1.91-1.85,3.44-.34,5.61,6.13,8.85,6.23,8.9,13.68,1.43,4.39-4.4,8.83-8.77,13.24-13.15l1.32.59v5.28q0,23,0,46c0,9.2.05,9,9.38,9.23,4.59.12,6.12-1.37,6.06-6-.21-15.82-.06-31.65-.06-47.47C261.34,60.28,261.33,58.54,261.33,56.49Z" transform="translate(-11.11 -7.55)"/><path class="cls-2" d="M261.33,56.49c0,2,0,3.79,0,5.53,0,15.82-.15,31.65.06,47.47.06,4.61-1.47,6.1-6.06,6-9.33-.25-9.36,0-9.38-9.23q0-23,0-46V55l-1.32-.59c-4.41,4.38-8.85,8.75-13.24,13.15-7.45,7.47-7.55,7.42-13.68-1.43-1.51-2.17-1.59-3.7.34-5.61q16.15-16,32.16-32.13c2.19-2.21,3.86-1.78,5.86.24q15.76,16,31.68,31.91c2.21,2.19,2.44,3.82.12,6.21-7.28,7.5-7.19,7.58-14.48.29-3.29-3.3-6.56-6.62-9.88-9.89C263.18,56.85,262.59,56.86,261.33,56.49Z" transform="translate(-11.11 -7.55)"/><path class="cls-3" d="M272,154h-.38v-4.35c-20.09,3.78-38.47.34-53.62-7.84V141h-1.44C184,122.55,167.05,82.08,181.37,45.19c-1.55-.06-3-.19-4.47-.19q-65.73,0-131.45,0a61,61,0,0,0-6.49.27C22.69,47,11.22,58.57,11.19,74q-.16,101.46,0,202.93a32.11,32.11,0,0,0,31.92,31.88q100,.17,199.93.05a26.64,26.64,0,0,0,19.29-8.07c7-6.85,9.57-15.36,9.57-24.92q0-47.94.08-95.88h0Zm-24.21,0H247A3.11,3.11,0,0,1,247.79,154Z" transform="translate(-11.11 -7.55)"/><path class="cls-2" d="M162.77,171.79c7.26-7.64,8.81-17,8.59-27.07.15,3.37.31,6.73.47,10.17,7.72-2.26,9.57-1.5,13.14,5q26.33,47.91,52.69,95.8c.56,1,1.16,2,1.66,3.07,2.42,5,1,7.61-4.43,8.22a46.13,46.13,0,0,1-5,.13q-85-.14-169.91-.28c-4.32,0-8.65.33-13,.27-1.2,0-2.91-.53-3.41-1.39-.42-.71.32-2.46,1-3.41q19.73-27,39.64-53.88a36.44,36.44,0,0,1,7.22-7.5c6.65-4.94,13.79-4.55,20.15.72,2.05,1.7,3.91,3.62,5.85,5.44,10.14,9.56,17.5,8.83,25.22-2.91,6.21-9.46,12-19.18,18-28.78.44-.7.85-1.42,1.27-2.13Z" transform="translate(-11.11 -7.55)"/><circle class="cls-2" cx="75.89" cy="121.45" r="29"/></svg>